<svg width="18" height="18" viewBox="0 0 18 18" fill="none" xmlns="http://www.w3.org/2000/svg">
<path d="M8.99999 0.666748C11.2642 0.666748 11.5467 0.675081 12.435 0.716748C13.3225 0.758415 13.9267 0.897581 14.4583 1.10425C15.0083 1.31591 15.4717 1.60258 15.935 2.06508C16.3587 2.48166 16.6866 2.98557 16.8958 3.54175C17.1017 4.07258 17.2417 4.67758 17.2833 5.56508C17.3225 6.45341 17.3333 6.73591 17.3333 9.00008C17.3333 11.2642 17.325 11.5467 17.2833 12.4351C17.2417 13.3226 17.1017 13.9267 16.8958 14.4584C16.6872 15.0149 16.3593 15.5189 15.935 15.9351C15.5183 16.3587 15.0144 16.6865 14.4583 16.8959C13.9275 17.1017 13.3225 17.2417 12.435 17.2834C11.5467 17.3226 11.2642 17.3334 8.99999 17.3334C6.73582 17.3334 6.45332 17.3251 5.56499 17.2834C4.67749 17.2417 4.07332 17.1017 3.54166 16.8959C2.98526 16.6871 2.48126 16.3592 2.06499 15.9351C1.64116 15.5186 1.31327 15.0146 1.10416 14.4584C0.89749 13.9276 0.758323 13.3226 0.716656 12.4351C0.67749 11.5467 0.666656 11.2642 0.666656 9.00008C0.666656 6.73591 0.67499 6.45341 0.716656 5.56508C0.758323 4.67675 0.89749 4.07341 1.10416 3.54175C1.31269 2.98523 1.64066 2.48118 2.06499 2.06508C2.48138 1.64111 2.98535 1.31319 3.54166 1.10425C4.07332 0.897581 4.67666 0.758415 5.56499 0.716748C6.45332 0.677581 6.73582 0.666748 8.99999 0.666748ZM8.99999 4.83341C7.89492 4.83341 6.83511 5.2724 6.05371 6.0538C5.27231 6.8352 4.83332 7.89501 4.83332 9.00008C4.83332 10.1052 5.27231 11.165 6.05371 11.9464C6.83511 12.7278 7.89492 13.1667 8.99999 13.1667C10.1051 13.1667 11.1649 12.7278 11.9463 11.9464C12.7277 11.165 13.1667 10.1052 13.1667 9.00008C13.1667 7.89501 12.7277 6.8352 11.9463 6.0538C11.1649 5.2724 10.1051 4.83341 8.99999 4.83341ZM14.4167 4.62508C14.4167 4.34881 14.3069 4.08386 14.1116 3.88851C13.9162 3.69316 13.6513 3.58341 13.375 3.58341C13.0987 3.58341 12.8338 3.69316 12.6384 3.88851C12.4431 4.08386 12.3333 4.34881 12.3333 4.62508C12.3333 4.90135 12.4431 5.1663 12.6384 5.36165C12.8338 5.557 13.0987 5.66675 13.375 5.66675C13.6513 5.66675 13.9162 5.557 14.1116 5.36165C14.3069 5.1663 14.4167 4.90135 14.4167 4.62508ZM8.99999 6.50008C9.66303 6.50008 10.2989 6.76347 10.7678 7.23231C11.2366 7.70115 11.5 8.33704 11.5 9.00008C11.5 9.66312 11.2366 10.299 10.7678 10.7678C10.2989 11.2367 9.66303 11.5001 8.99999 11.5001C8.33695 11.5001 7.70106 11.2367 7.23222 10.7678C6.76338 10.299 6.49999 9.66312 6.49999 9.00008C6.49999 8.33704 6.76338 7.70115 7.23222 7.23231C7.70106 6.76347 8.33695 6.50008 8.99999 6.50008Z" fill="#C1C1C1"/>
</svg>
