<svg width="18" height="18" viewBox="0 0 18 18" fill="none" xmlns="http://www.w3.org/2000/svg">
<path d="M8.99999 17.3334C4.39749 17.3334 0.666656 13.6026 0.666656 9.00008C0.666656 4.39758 4.39749 0.666748 8.99999 0.666748C13.6025 0.666748 17.3333 4.39758 17.3333 9.00008C17.3333 13.6026 13.6025 17.3334 8.99999 17.3334ZM6.40832 9.97508L6.41916 9.96925L7.14416 12.3609C7.23749 12.6201 7.36582 12.6667 7.52166 12.6451C7.67832 12.6242 7.76082 12.5401 7.86332 12.4417L8.85332 11.4851L10.9783 13.0584C11.3667 13.2726 11.6458 13.1617 11.7425 12.6984L13.1233 6.18008C13.2758 5.57341 13.0092 5.33008 12.5383 5.52341L4.42749 8.65675C3.87416 8.87842 3.87749 9.18841 4.32749 9.32591L6.40832 9.97591V9.97508Z" fill="#C1C1C1"/>
</svg>
